<svg xmlns="http://www.w3.org/2000/svg" viewBox="0 0 1200 800" font-family="Segoe UI, Roboto, Helvetica, Arial, sans-serif">
  <rect width="1200" height="800" rx="36" fill="#f6f9fd"/>
  <g transform="translate(330 170)">
    <path d="M60 40 q-20 -40 0 -80 M120 40 q-20 -40 0 -80 M180 40 q-20 -40 0 -80" fill="none" stroke="#93c5fd" stroke-width="12" stroke-linecap="round"/>
    <path d="M0 70 h240 v200 a70 70 0 0 1 -70 70 h-100 a70 70 0 0 1 -70 -70z" fill="#0b66c3"/>
    <path d="M240 110 h40 a55 55 0 0 1 0 110 h-40" fill="none" stroke="#0b66c3" stroke-width="26"/>
    <rect x="-40" y="350" width="320" height="24" rx="12" fill="#0a4f96"/>
  </g>
  <g transform="translate(830 330)">
    <circle r="150" fill="#fff" stroke="#0a4f96" stroke-width="14"/>
    <path d="M0 0 L0 -150 A150 150 0 0 1 150 0 z" fill="#cfdceb"/>
    <line x1="0" y1="0" x2="0" y2="-110" stroke="#0a4f96" stroke-width="12" stroke-linecap="round"/>
    <line x1="0" y1="0" x2="110" y2="0" stroke="#dc2626" stroke-width="12" stroke-linecap="round"/>
    <circle r="14" fill="#0a4f96"/>
  </g>
  <text x="600" y="690" text-anchor="middle" font-size="64" font-weight="900" fill="#0a4f96">15 minutos</text>
</svg>
